Coordinates
version=1
nRows=29
nColumns=24
inDegrees=yes

Units are S.I. units (second, meters, Newtons, ...)
Angles are in degrees.

endheader
time	pelvis_tilt	pelvis_list	pelvis_rotation	pelvis_tx	pelvis_ty	pelvis_tz	hip_flexion_r	hip_adduction_r	hip_rotation_r	knee_angle_r	ankle_angle_r	subtalar_angle_r	mtp_angle_r	hip_flexion_l	hip_adduction_l	hip_rotation_l	knee_angle_l	ankle_angle_l	subtalar_angle_l	mtp_angle_l	lumbar_extension	lumbar_bending	lumbar_rotation
      0.89266667	     -0.30843642	     -4.86945547	     -2.66374941	     -0.42296252	      1.01949984	      0.30519576	      8.71032549	      8.32178382	     -1.53996737	     -9.87502233	     -5.12740220	    -14.87415178	     -1.96870429	     15.47373741	    -10.10547889	     -6.70363136	    -69.85197807	      1.98023706	     -7.91276320	    -10.88652660	    -10.73526222	      5.90930576	      5.72017498
      0.89683333	     -0.27896612	     -4.75882648	     -2.77096053	     -0.41774011	      1.02027624	      0.30553543	      8.24947795	      8.21679755	     -1.44278276	     -9.68017516	     -5.02896476	    -14.83228218	     -1.96486983	     16.04843520	    -10.03186797	     -6.79529528	    -69.67917663	      2.28188121	     -8.00156669	    -10.91385867	    -10.76862167	      5.77452486	      5.78638982
      0.90100000	     -0.17439152	     -4.56201995	     -3.02293557	     -0.41257135	      1.02118969	      0.30618888	      7.74388332	      8.03621702	     -1.22591733	     -9.56983872	     -4.81087438	    -14.60591104	     -1.94600018	     16.46047751	     -9.91993036	     -7.08242491	    -69.37747166	      2.52847085	     -8.02706249	    -11.06608695	    -10.91625458	      5.47104137	      6.16677916
      0.90516667	     -0.07863728	     -4.40377427	     -3.21733900	     -0.40737988	      1.02204906	      0.30670265	      7.23156610	      7.88533710	     -1.05787560	     -9.41612797	     -4.67519871	    -14.49513034	     -1.92876656	     16.89001252	     -9.83248900	     -7.31124055	    -69.03614221	      2.79522521	     -8.08196883	    -11.21751217	    -11.04482160	      5.24401566	      6.41353582
      0.90933333	      0.00525338	     -4.25353155	     -3.40203494	     -0.40216331	      1.02286068	      0.30719179	      6.72948533	      7.73662022	     -0.91945091	     -9.25885440	     -4.52075111	    -14.35820903	     -1.91032659	     17.31980584	     -9.75575034	     -7.54155479	    -68.63793675	      3.04012693	     -8.15603188	    -11.36830520	    -11.14806780	      5.01854791	      6.63141985
      0.91350000	      0.09152859	     -4.10527068	     -3.57678356	     -0.39697561	      1.02364230	      0.30761144	      6.22806495	      7.58194942	     -0.78552187	     -9.10032126	     -4.37828807	    -14.22130724	     -1.89311610	     17.73890089	     -9.67255863	     -7.76401785	    -68.18709550	      3.28210909	     -8.21704128	    -11.49906980	    -11.26425715	      4.81616830	      6.83003698
      0.91766667	      0.10587432	     -4.05017735	     -3.65113341	     -0.39177317	      1.02419402	      0.30787506	      5.78134905	      7.52334351	     -0.74128964	     -8.89439543	     -4.26439676	    -14.18055168	     -1.88955928	     18.27994125	     -9.67374685	     -7.86667842	    -67.75598757	      3.50682780	     -8.29760689	    -11.51487231	    -11.27247470	      4.73035324	      6.86889254
      0.92183333	      0.35538711	     -3.83706038	     -3.94535447	     -0.38658174	      1.02525641	      0.30848992	      5.11915960	      7.29181118	     -0.52314755	     -8.76790109	     -4.07158218	    -13.94732023	     -1.85858208	     18.41164650	     -9.55649548	     -8.27829788	    -67.10223992	      3.71808836	     -8.40806871	    -11.72590359	    -11.58516287	      4.40926271	      7.30151219
      0.92600000	      0.43686030	     -3.68699175	     -4.12534661	     -0.38135469	      1.02594799	      0.30890415	      4.62523236	      7.12595339	     -0.41057318	     -8.61057010	     -3.92553359	    -13.81710156	     -1.83892369	     18.77642034	     -9.48277045	     -8.53765446	    -66.46931641	      3.90850494	     -8.42605704	    -11.85730336	    -11.67337491	      4.18996758	      7.45319948
      0.93016667	      0.57706841	     -3.55200672	     -4.31036351	     -0.37614802	      1.02669497	      0.30932379	      4.06231037	      6.96987133	     -0.28625121	     -8.43871664	     -3.77855196	    -13.67383783	     -1.81805382	     19.05638336	     -9.42599125	     -8.81718808	    -65.78161423	      4.09409348	     -8.50313146	    -11.99825457	    -11.83834421	      3.96975310	      7.68058911
      0.93433333	      0.72563879	     -3.43266794	     -4.50213023	     -0.37095878	      1.02742158	      0.30973274	      3.49077468	      6.82737002	     -0.13390281	     -8.26696049	     -3.63289985	    -13.56167609	     -1.79141643	     19.30875116	     -9.38656527	     -9.10553816	    -65.04376487	      4.27839568	     -8.58374079	    -12.18086632	    -12.01978467	      3.78927447	      7.91794004
      0.93850000	      0.85825758	     -3.30748176	     -4.67833255	     -0.36572606	      1.02808593	      0.31011546	      2.93845848	      6.67334280	     -0.02945418	     -8.09891339	     -3.48714099	    -13.43588010	     -1.77019216	     19.56124425	     -9.34024831	     -9.39204328	    -64.25113242	      4.43828588	     -8.62814801	    -12.32685311	    -12.16048655	      3.58117880	      8.08866774
      0.94266667	      0.99844493	     -3.19594535	     -4.85739351	     -0.36051420	      1.02872587	      0.31047014	      2.37869136	      6.52821615	      0.08605035	     -7.92909897	     -3.34619955	    -13.31718781	     -1.74881989	     19.78746518	     -9.30490138	     -9.68208077	    -63.40976091	      4.59798901	     -8.68685675	    -12.47567633	    -12.32092246	      3.39955114	      8.29594215
      0.94683333	      1.12106865	     -3.08917470	     -5.03407283	     -0.35529877	      1.02930140	      0.31082236	      1.83832862	      6.38821841	      0.21316882	     -7.75974291	     -3.20464533	    -13.21042953	     -1.72855253	     20.01657785	     -9.27435271	     -9.97181961	    -62.52096413	      4.74656319	     -8.74574641	    -12.62382761	    -12.45977153	      3.22631669	      8.48267907
      0.95100000	      1.25218023	     -2.99598880	     -5.20884533	     -0.35010471	      1.02985022	      0.31113751	      1.28963256	      6.25671775	      0.35221505	     -7.59005584	     -3.06630186	    -13.11012005	     -1.70789973	     20.21927272	     -9.25212008	    -10.25703642	    -61.58552178	      4.89076016	     -8.79360409	    -12.78179253	    -12.61834444	      3.07528510	      8.68030844
      0.95516667	      1.39160712	     -2.91117741	     -5.37430946	     -0.34489616	      1.03036952	      0.31144352	      0.72847788	      6.13088706	      0.47733482	     -7.41328304	     -2.93014007	    -13.01865414	     -1.68947931	     20.39464270	     -9.23785367	    -10.54757681	    -60.60153941	      5.02682839	     -8.83479196	    -12.93418503	    -12.77558961	      2.92471345	      8.85194542
      0.95933333	      1.50507427	     -2.83432964	     -5.53838764	     -0.33969414	      1.03081179	      0.31172384	      0.19895121	      6.01192313	      0.60636112	     -7.24200944	     -2.79354840	    -12.93347351	     -1.67180517	     20.58176287	     -9.22802252	    -10.83288179	    -59.57422405	      5.15905650	     -8.88572359	    -13.09424062	    -12.90855486	      2.78802676	      9.03069436
      0.96350000	      1.63078814	     -2.77593350	     -5.70266185	     -0.33448909	      1.03122715	      0.31200299	     -0.34634625	      5.90898515	      0.73919052	     -7.06777099	     -2.66931240	    -12.86709503	     -1.65282596	     20.73475427	     -9.23754140	    -11.12515448	    -58.50587460	      5.31631183	     -8.94160029	    -13.29102569	    -13.05303255	      2.67041802	      9.21901335
      0.96766667	      1.70138227	     -2.71351887	     -5.85615581	     -0.32928108	      1.03151966	      0.31225145	     -0.82452071	      5.80387331	      0.86005737	     -6.90908697	     -2.52114653	    -12.78977171	     -1.63843727	     20.93429439	     -9.23936921	    -11.40431648	    -57.38877515	      5.40874757	     -8.97772685	    -13.45723842	    -13.13133224	      2.55492370	      9.34706334
      0.97183333	      1.78040367	     -2.66073340	     -5.99504831	     -0.32406815	      1.03178627	      0.31245169	     -1.31751521	      5.70385189	      0.97097669	     -6.73719399	     -2.39128976	    -12.72052191	     -1.62716788	     21.10742373	     -9.23878582	    -11.66976271	    -56.22648932	      5.52258462	     -9.00811490	    -13.61275455	    -13.22108328	      2.45478793	      9.48267664
      0.97600000	      1.86106199	     -2.62419239	     -6.13313768	     -0.31886219	      1.03200799	      0.31264944	     -1.81057708	      5.61949072	      1.07849374	     -6.57017947	     -2.25976669	    -12.66008927	     -1.61764992	     21.25933230	     -9.25537417	    -11.94265650	    -55.02349943	      5.63377154	     -9.05240292	    -13.77129611	    -13.31402605	      2.36784101	      9.61444226
      0.98016667	      1.92167167	     -2.60072668	     -6.26040775	     -0.31366603	      1.03215688	      0.31280601	     -2.28361441	      5.54819569	      1.18802668	     -6.40037408	     -2.12829411	    -12.60441191	     -1.61016014	     21.41883319	     -9.27628299	    -12.19994892	    -53.78121022	      5.74482583	     -9.10003109	    -13.93692336	    -13.38962043	      2.30760962	      9.73686217
      0.98433333	      1.93284679	     -2.58062638	     -6.38354799	     -0.30845327	      1.03219088	      0.31294944	     -2.69829832	      5.48422182	      1.28457171	     -6.24343157	     -1.98825683	    -12.54602098	     -1.60515489	     21.61415290	     -9.30075238	    -12.45539819	    -52.49775784	      5.84292305	     -9.15345815	    -14.09154984	    -13.40382496	      2.25628444	      9.83611638
      0.98850000	      1.95024060	     -2.57324150	     -6.49577649	     -0.30324200	      1.03219545	      0.31305838	     -3.12386395	      5.43081320	      1.37594571	     -6.07893991	     -1.85613075	    -12.49698627	     -1.60222381	     21.78391495	     -9.32842087	    -12.70411003	    -51.16935925	      5.93519140	     -9.21127349	    -14.24954186	    -13.42642138	      2.21949876	      9.93008730
      0.99266667	      1.96106297	     -2.58361115	     -6.60101151	     -0.29804061	      1.03214094	      0.31314774	     -3.54421233	      5.39567598	      1.46057739	     -5.91276699	     -1.72453175	    -12.45129308	     -1.60145505	     21.94459415	     -9.37035075	    -12.94935773	    -49.80488903	      6.03196778	     -9.26605791	    -14.41590201	    -13.44674892	      2.20527228	     10.01801944
      0.99683333	      1.87627945	     -2.61256850	     -6.64885859	     -0.29280928	      1.03187111	      0.31309955	     -3.86403909	      5.39107582	      1.48155970	     -5.74457750	     -1.63809608	    -12.43362894	     -1.60225209	     22.21700566	     -9.40818576	    -13.11580737	    -48.42966862	      6.16126803	     -9.29670941	    -14.48226416	    -13.35351879	      2.24204613	     10.04364430
      1.00100000	      1.82149762	     -2.62579891	     -6.74059132	     -0.28759628	      1.03164741	      0.31313983	     -4.20864261	      5.36375515	      1.55251572	     -5.59105171	     -1.49868705	    -12.37755706	     -1.60278177	     22.40984402	     -9.43767329	    -13.34377162	    -46.97133214	      6.21797179	     -9.37645135	    -14.56391459	    -13.28755888	      2.23931415	     10.07535789
      1.00516667	      1.85443991	     -2.65451711	     -6.85661490	     -0.28237656	      1.03152955	      0.31323325	     -4.65153607	      5.33846420	      1.61424878	     -5.43585720	     -1.31995892	    -12.30089144	     -1.60689407	     22.46934205	     -9.49331747	    -13.65119261	    -45.46295245	      6.25986193	     -9.48058505	    -14.71546259	    -13.33611621	      2.24067172	     10.18078300
      1.00933333	      1.74335133	     -2.71946436	     -6.88458582	     -0.27717123	      1.03110253	      0.31312994	     -4.95134051	      5.37477460	      1.64475271	     -5.25822075	     -1.23037442	    -12.28534693	     -1.61007089	     22.71502454	     -9.54578535	    -13.79772968	    -43.96352270	      6.35443473	     -9.50089598	    -14.78234830	    -13.22679547	      2.32578340	     10.20012865
